HIERARCHY
ROOT joint_Root
{
	OFFSET 0.0 0.0 0.0
	CHANNELS 6 Xposition Yposition Zposition Zrotation Xrotation Yrotation 
	JOINT Hips
	{
		OFFSET 4.5925 91.4895 -427.239
		CHANNELS 6 Xposition Yposition Zposition Zrotation Xrotation Yrotation 
		JOINT Spine
		{
			OFFSET 15.7357 0.0 0.0
			CHANNELS 6 Xposition Yposition Zposition Zrotation Xrotation Yrotation 
			JOINT Chest
			{
				OFFSET 8.98455 -0.406207 0.0
				CHANNELS 6 Xposition Yposition Zposition Zrotation Xrotation Yrotation 
				JOINT Neck
				{
					OFFSET 16.3773 0.0 0.0
					CHANNELS 6 Xposition Yposition Zposition Zrotation Xrotation Yrotation 
					JOINT Head
					{
						OFFSET 6.45672 0.0 0.0
						CHANNELS 6 Xposition Yposition Zposition Zrotation Xrotation Yrotation 
						End Site
						{
							OFFSET 0.0 0.0 0.0
						}
					}
				}
				JOINT Shoulder_L
				{
					OFFSET 12.9942 -0.242716 4.98039
					CHANNELS 6 Xposition Yposition Zposition Zrotation Xrotation Yrotation 
					JOINT UpperArm_L
					{
						OFFSET 5.34809 0.0 0.0
						CHANNELS 6 Xposition Yposition Zposition Zrotation Xrotation Yrotation 
						JOINT LowerArm_L
						{
							OFFSET 24.3286 1.87007e-05 0.0
							CHANNELS 6 Xposition Yposition Zposition Zrotation Xrotation Yrotation 
							JOINT Hand_L
							{
								OFFSET 22.2916 0.0 0.0
								CHANNELS 6 Xposition Yposition Zposition Zrotation Xrotation Yrotation 
								End Site
								{
									OFFSET 0.0 0.0 0.0
								}
							}
						}
					}
				}
				JOINT Shoulder_R
				{
					OFFSET 12.9945 -0.242716 -4.98039
					CHANNELS 6 Xposition Yposition Zposition Zrotation Xrotation Yrotation 
					JOINT UpperArm_R
					{
						OFFSET -5.34813 0.0 0.0
						CHANNELS 6 Xposition Yposition Zposition Zrotation Xrotation Yrotation 
						JOINT LowerArm_R
						{
							OFFSET -24.3289 0.000322201 0.0
							CHANNELS 6 Xposition Yposition Zposition Zrotation Xrotation Yrotation 
							JOINT Hand_R
							{
								OFFSET -22.2915 -0.000108084 0.0
								CHANNELS 6 Xposition Yposition Zposition Zrotation Xrotation Yrotation 
								End Site
								{
									OFFSET 0.0 0.0 0.0
								}
							}
						}
					}
				}
			}
		}
		JOINT UpperLeg_L
		{
			OFFSET -2.19248 -6.46944 0.0
			CHANNELS 6 Xposition Yposition Zposition Zrotation Xrotation Yrotation 
			JOINT LowerLeg_L
			{
				OFFSET 39.0811 0.0 -1.23785e-05
				CHANNELS 6 Xposition Yposition Zposition Zrotation Xrotation Yrotation 
				JOINT Foot_L
				{
					OFFSET 40.9854 0.0 -1.26872e-05
					CHANNELS 6 Xposition Yposition Zposition Zrotation Xrotation Yrotation 
					JOINT Toes_L
					{
						OFFSET 11.7543 0.0 0.0
						CHANNELS 6 Xposition Yposition Zposition Zrotation Xrotation Yrotation 
						End Site
						{
							OFFSET 0.0 0.0 0.0
						}
					}
				}
			}
		}
		JOINT UpperLeg_R
		{
			OFFSET -2.19251 6.46944 0.0
			CHANNELS 6 Xposition Yposition Zposition Zrotation Xrotation Yrotation 
			JOINT LowerLeg_R
			{
				OFFSET -39.0811 -0.00228153 -0.0401928
				CHANNELS 6 Xposition Yposition Zposition Zrotation Xrotation Yrotation 
				JOINT Foot_R
				{
					OFFSET -40.9854 0.0 0.0
					CHANNELS 6 Xposition Yposition Zposition Zrotation Xrotation Yrotation 
					JOINT Toes_R
					{
						OFFSET -11.7543 0.0 0.0
						CHANNELS 6 Xposition Yposition Zposition Zrotation Xrotation Yrotation 
						End Site
						{
							OFFSET 0.0 0.0 0.0
						}
					}
				}
			}
		}
	}
}
MOTION
Frames:	9
Frame Time:	0.0333333
0.000000 0.000000 0.000000 0.000000 0.000000 -0.000000 -0.121542 90.321100 -3.284210 89.060000 -3.400150 11.196800 15.735700 0.000005 -0.000001 89.003400 76.986100 -89.385600 8.984550 -0.406207 -0.000000 18.256800 -0.478998 -0.689081 16.377300 -0.000001 -0.000001 3.053900 -2.711990 0.760213 6.456720 -0.000001 -0.000000 -6.792460 -1.326100 1.176720 12.994200 -0.242716 4.980390 -91.144200 6.132830 -79.410800 5.348090 -0.000007 -0.000001 -54.172700 35.034500 -31.536000 24.328600 0.000019 0.000005 8.384380 18.769800 -24.610500 22.291600 -0.000001 0.000005 10.838800 5.245780 1.544030 12.994500 -0.242716 -4.980390 89.165600 10.310100 -85.347800 -5.348130 -0.000001 -0.000004 -57.632300 30.159500 -24.759100 -24.328900 0.000322 -0.000009 2.420220 4.102380 -30.586400 -22.291500 -0.000108 -0.000004 17.264400 5.393840 -2.738270 -2.192480 -6.469440 -0.000000 -174.144000 -13.264600 -2.890430 39.081100 -0.000007 -0.000012 -0.186717 0.271477 34.519900 40.985400 -0.000006 -0.000013 0.322916 4.364450 -70.082700 11.754300 -0.000000 0.000003 -0.000111 -0.001129 -16.620800 -2.192510 6.469440 -0.000001 174.574000 19.828100 178.340000 -39.081100 -0.002282 -0.040193 -0.134205 0.206758 33.625000 -40.985400 0.000008 0.000006 4.997900 13.507000 -70.768200 -11.754300 -0.000006 -0.000006 -0.002359 -0.033124 -17.920100
0.000000 0.000000 0.000000 0.000000 0.000000 -0.000000 -0.115825 90.324400 -3.290210 89.054500 -3.443330 11.233500 15.735700 0.000005 -0.000001 88.999200 76.925300 -89.379400 8.984550 -0.406207 -0.000000 18.378300 -0.483080 -0.684000 16.377300 -0.000001 -0.000001 2.962790 -2.721730 0.689360 6.456720 -0.000001 -0.000000 -6.973950 -1.360190 1.215730 12.994200 -0.242716 4.980390 -91.119700 6.040850 -79.478700 5.348090 -0.000007 -0.000001 -54.252000 34.450800 -31.527600 24.328600 0.000019 0.000005 8.749870 18.776400 -25.555600 22.291600 -0.000001 0.000005 11.013500 5.249570 1.444140 12.994500 -0.242716 -4.980390 89.161000 10.272000 -85.304900 -5.348130 -0.000001 -0.000004 -57.403600 29.775000 -24.988900 -24.328900 0.000322 -0.000009 2.564940 4.164030 -31.681800 -22.291500 -0.000108 -0.000004 17.490100 5.395080 -2.778150 -2.192480 -6.469440 -0.000000 -174.130000 -13.278500 -2.843430 39.081100 -0.000007 -0.000012 -0.188361 0.274006 34.506200 40.985400 -0.000006 -0.000013 0.317901 4.336820 -70.075800 11.754300 -0.000000 0.000003 -0.000117 -0.001176 -16.622500 -2.192510 6.469440 -0.000001 174.569000 19.793600 178.377000 -39.081100 -0.002282 -0.040193 -0.131811 0.203303 33.606200 -40.985400 0.000008 0.000006 5.001710 13.559200 -70.752500 -11.754300 -0.000006 -0.000006 -0.002259 -0.031917 -17.871000
0.000000 0.000000 0.000000 0.000000 0.000000 -0.000000 -0.117124 90.322600 -3.318660 89.065600 -3.494410 11.230700 15.735700 0.000005 -0.000001 88.966600 76.874800 -89.353900 8.984550 -0.406207 -0.000000 18.479100 -0.500350 -0.695005 16.377300 -0.000001 -0.000001 2.876810 -2.742750 0.681259 6.456720 -0.000001 -0.000000 -7.160100 -1.340010 1.199220 12.994200 -0.242716 4.980390 -91.102300 5.923260 -79.438800 5.348090 -0.000007 -0.000001 -54.236800 33.872600 -31.706200 24.328600 0.000019 0.000005 9.246680 18.975100 -26.596100 22.291600 -0.000001 0.000005 11.243500 5.250330 1.424210 12.994500 -0.242716 -4.980390 89.165800 10.147300 -85.275400 -5.348130 -0.000001 -0.000004 -57.239200 29.390300 -25.308500 -24.328900 0.000322 -0.000009 2.930160 4.578250 -32.678700 -22.291500 -0.000108 -0.000004 17.707300 5.395850 -2.803000 -2.192480 -6.469440 -0.000000 -174.150000 -13.323000 -2.868680 39.081100 -0.000007 -0.000012 -0.183555 0.266900 34.517700 40.985400 -0.000006 -0.000013 0.319189 4.301410 -70.063400 11.754300 -0.000000 0.000003 -0.000114 -0.001151 -16.621600 -2.192510 6.469440 -0.000001 174.581000 19.788100 178.325000 -39.081100 -0.002282 -0.040193 -0.129978 0.200257 33.644000 -40.985400 0.000008 0.000006 5.090650 13.543200 -70.767400 -11.754300 -0.000006 -0.000006 -0.002404 -0.033667 -17.942100
0.000000 0.000000 0.000000 0.000000 0.000000 -0.000000 -0.118227 90.321300 -3.361390 89.054100 -3.495910 11.216100 15.735700 0.000005 -0.000001 88.900000 76.839300 -89.279300 8.984550 -0.406207 -0.000000 18.549300 -0.531037 -0.673762 16.377300 -0.000001 -0.000001 2.881110 -2.768690 0.698384 6.456720 -0.000001 -0.000000 -7.381170 -1.324480 1.156160 12.994200 -0.242716 4.980390 -91.089900 5.832010 -79.395600 5.348090 -0.000007 -0.000001 -54.216100 33.180200 -31.901000 24.328600 0.000019 0.000005 9.875150 19.253400 -27.830400 22.291600 -0.000001 0.000005 11.537200 5.246510 1.524340 12.994500 -0.242716 -4.980390 89.167200 10.053200 -85.239700 -5.348130 -0.000001 -0.000004 -56.947700 29.049700 -25.601300 -24.328900 0.000322 -0.000009 3.510990 5.244880 -33.876200 -22.291500 -0.000108 -0.000004 17.979000 5.396960 -2.838730 -2.192480 -6.469440 -0.000000 -174.133000 -13.320800 -2.924390 39.081100 -0.000007 -0.000012 -0.187754 0.272792 34.538700 40.985400 -0.000006 -0.000013 0.320949 4.329890 -70.042300 11.754300 -0.000000 0.000003 -0.000117 -0.001174 -16.622400 -2.192510 6.469440 -0.000001 174.616000 19.790200 178.271000 -39.081100 -0.002282 -0.040193 -0.127281 0.196109 33.656900 -40.985400 0.000008 0.000006 5.101380 13.542200 -70.747000 -11.754300 -0.000006 -0.000006 -0.002395 -0.033555 -17.937600
0.000000 0.000000 0.000000 0.000000 0.000000 -0.000000 -0.118860 90.322900 -3.393140 89.055000 -3.473980 11.200400 15.735700 0.000005 -0.000001 88.899300 76.803800 -89.274500 8.984550 -0.406207 -0.000000 18.620400 -0.532420 -0.664802 16.377300 -0.000001 -0.000001 2.853600 -2.792100 0.632763 6.456720 -0.000001 -0.000000 -7.545180 -1.389990 1.246880 12.994200 -0.242716 4.980390 -91.082000 5.762620 -79.347700 5.348090 -0.000007 -0.000001 -54.145200 32.377000 -32.182200 24.328600 0.000019 0.000005 10.581400 19.469400 -29.269000 22.291600 -0.000001 0.000005 11.886100 5.241920 1.644850 12.994500 -0.242716 -4.980390 89.153900 10.012100 -85.144900 -5.348130 -0.000001 -0.000004 -56.588300 28.627600 -25.905500 -24.328900 0.000322 -0.000009 4.087560 5.810290 -35.225100 -22.291500 -0.000108 -0.000004 18.272200 5.401100 -2.973010 -2.192480 -6.469440 -0.000000 -174.139000 -13.319200 -2.962270 39.081100 -0.000007 -0.000012 -0.188300 0.273598 34.537500 40.985400 -0.000006 -0.000013 0.332125 4.365000 -70.021600 11.754300 -0.000000 0.000003 -0.000105 -0.001071 -16.618600 -2.192510 6.469440 -0.000001 174.615000 19.812000 178.240000 -39.081100 -0.002282 -0.040193 -0.131575 0.202672 33.642200 -40.985400 0.000008 0.000006 4.998270 13.562900 -70.689900 -11.754300 -0.000006 -0.000006 -0.002325 -0.032715 -17.903400
0.000000 0.000000 0.000000 0.000000 0.000000 -0.000000 -0.113208 90.330100 -3.424690 89.056700 -3.465080 11.182900 15.735700 0.000005 -0.000001 88.910500 76.772500 -89.278300 8.984550 -0.406207 -0.000000 18.683100 -0.528008 -0.650612 16.377300 -0.000001 -0.000001 2.829680 -2.810240 0.643241 6.456720 -0.000001 -0.000000 -7.661380 -1.391490 1.212500 12.994200 -0.242716 4.980390 -91.078000 5.701940 -79.276100 5.348090 -0.000007 -0.000001 -54.238100 31.290400 -32.366900 24.328600 0.000019 0.000005 11.571900 19.853500 -31.085900 22.291600 -0.000001 0.000005 12.178600 5.236140 1.796140 12.994500 -0.242716 -4.980390 89.140900 9.947830 -85.039200 -5.348130 -0.000001 -0.000004 -56.265200 28.146500 -26.211000 -24.328900 0.000322 -0.000009 4.581110 6.178250 -36.674500 -22.291500 -0.000108 -0.000004 18.696600 5.403430 -3.048950 -2.192480 -6.469440 -0.000000 -174.159000 -13.342300 -2.998240 39.081100 -0.000007 -0.000012 -0.184069 0.267678 34.514700 40.985400 -0.000006 -0.000013 0.338008 4.342840 -69.982500 11.754300 -0.000000 0.000003 -0.000111 -0.001124 -16.620600 -2.192510 6.469440 -0.000001 174.617000 19.842800 178.208000 -39.081100 -0.002282 -0.040193 -0.132158 0.203679 33.625000 -40.985400 0.000008 0.000006 5.058760 13.585200 -70.674000 -11.754300 -0.000006 -0.000006 -0.002358 -0.033115 -17.919700
0.000000 0.000000 0.000000 0.000000 0.000000 -0.000000 -0.112428 90.343700 -3.467040 89.069500 -3.479620 11.135000 15.735700 0.000005 -0.000001 88.898000 76.777000 -89.268200 8.984550 -0.406207 -0.000000 18.674100 -0.533699 -0.654428 16.377300 -0.000001 -0.000001 2.851010 -2.810790 0.647354 6.456720 -0.000001 -0.000000 -7.678310 -1.376420 1.215470 12.994200 -0.242716 4.980390 -91.084400 5.650370 -79.117300 5.348090 -0.000007 -0.000001 -54.155800 30.335200 -32.593100 24.328600 0.000019 0.000005 12.373200 19.681600 -33.078800 22.291600 -0.000001 0.000005 12.780500 5.233030 1.877110 12.994500 -0.242716 -4.980390 89.126200 9.879360 -84.920400 -5.348130 -0.000001 -0.000004 -56.071400 27.528200 -26.430400 -24.328900 0.000322 -0.000009 5.132690 6.550900 -38.219500 -22.291500 -0.000108 -0.000004 18.964300 5.403550 -3.053260 -2.192480 -6.469440 -0.000000 -174.182000 -13.347500 -3.051470 39.081100 -0.000007 -0.000012 -0.187174 0.272813 34.453900 40.985400 -0.000006 -0.000013 0.335948 4.350740 -69.917800 11.754300 -0.000000 0.000003 -0.000114 -0.001151 -16.621600 -2.192510 6.469440 -0.000001 174.641000 19.852300 178.139000 -39.081100 -0.002282 -0.040193 -0.128364 0.198266 33.586000 -40.985400 0.000008 0.000006 5.094660 13.577700 -70.629900 -11.754300 -0.000006 -0.000006 -0.002262 -0.031953 -17.872400
0.000000 0.000000 0.000000 0.000000 0.000000 -0.000000 -0.117788 90.355100 -3.522290 89.067400 -3.445460 11.021900 15.735700 0.000005 -0.000001 88.870200 76.815200 -89.225300 8.984550 -0.406207 -0.000000 18.597400 -0.543219 -0.622989 16.377300 -0.000001 -0.000001 2.886730 -2.827120 0.686863 6.456720 -0.000001 -0.000000 -7.654520 -1.360850 1.129410 12.994200 -0.242716 4.980390 -91.081000 5.599700 -79.055500 5.348090 -0.000007 -0.000001 -54.226400 29.134400 -32.684800 24.328600 0.000019 0.000005 13.453100 19.637100 -35.443000 22.291600 -0.000001 0.000005 13.119000 5.227520 2.019210 12.994500 -0.242716 -4.980390 89.114800 9.778410 -84.801900 -5.348130 -0.000001 -0.000004 -56.072600 26.638000 -26.585500 -24.328900 0.000322 -0.000009 5.692780 6.862930 -39.840900 -22.291500 -0.000108 -0.000004 19.331200 5.402940 -3.032980 -2.192480 -6.469440 -0.000000 -174.213000 -13.364300 -3.199480 39.081100 -0.000007 -0.000012 -0.184179 0.268796 34.419300 40.985400 -0.000006 -0.000013 0.348820 4.385790 -69.853800 11.754300 -0.000000 0.000003 -0.000118 -0.001182 -16.622800 -2.192510 6.469440 -0.000001 174.687000 19.921900 178.006000 -39.081100 -0.002282 -0.040193 -0.128354 0.198587 33.541500 -40.985400 0.000008 0.000006 5.070540 13.611100 -70.564300 -11.754300 -0.000006 -0.000006 -0.002444 -0.034143 -17.961500
0.000000 0.000000 0.000000 0.000000 0.000000 -0.000000 -0.117350 90.371700 -3.553990 89.068300 -3.426130 10.982200 15.735700 0.000005 -0.000001 88.891300 76.823300 -89.235400 8.984550 -0.406207 -0.000000 18.581400 -0.532334 -0.602849 16.377300 -0.000001 -0.000001 2.887130 -2.809860 0.692012 6.456720 -0.000001 -0.000000 -7.654040 -1.381540 1.122310 12.994200 -0.242716 4.980390 -91.074800 5.509660 -78.943500 5.348090 -0.000007 -0.000001 -54.238400 27.978500 -32.864900 24.328600 0.000019 0.000005 14.837700 19.739900 -38.108700 22.291600 -0.000001 0.000005 13.505300 5.225360 2.074920 12.994500 -0.242716 -4.980390 89.095800 9.717020 -84.657900 -5.348130 -0.000001 -0.000004 -55.996000 25.651100 -26.828900 -24.328900 0.000322 -0.000009 6.297540 7.146200 -41.580500 -22.291500 -0.000108 -0.000004 19.647100 5.405820 -3.127590 -2.192480 -6.469440 -0.000000 -174.215000 -13.396200 -3.236220 39.081100 -0.000007 -0.000012 -0.186857 0.273425 34.348800 40.985400 -0.000006 -0.000013 0.362494 4.444460 -69.786900 11.754300 -0.000000 0.000003 -0.000116 -0.001168 -16.622200 -2.192510 6.469440 -0.000001 174.693000 20.007400 177.977000 -39.081100 -0.002282 -0.040193 -0.127017 0.197086 33.472400 -40.985400 0.000008 0.000006 5.092690 13.670400 -70.510700 -11.754300 -0.000006 -0.000006 -0.002403 -0.033654 -17.941600
